<svg width="198" height="177" viewBox="0 0 198 177" fill="none" xmlns="http://www.w3.org/2000/svg">
<circle cx="99" cy="88" r="69.5" fill="white" stroke="black"/>
<path d="M97.296 130.536C92.3467 130.536 87.2267 129.725 81.936 128.104C77.4987 129.213 73.616 129.768 70.288 129.768C67.0453 129.768 64.8267 129.683 63.632 129.512C64.2293 124.477 66.7893 111.72 71.312 91.24C75.92 70.6747 78.224 59.0267 78.224 56.296C78.224 53.48 77.6267 51.048 76.432 49C75.3227 46.952 74.2133 45.4587 73.104 44.52L71.312 43.112L71.696 41.192C73.9147 40.5947 78.4373 39.9547 85.264 39.272C92.176 38.504 98.192 38.12 103.312 38.12C115.173 38.12 124.133 40.7653 130.192 46.056C136.336 51.2613 139.408 59.752 139.408 71.528C139.408 81.1707 137.787 90.4293 134.544 99.304C131.387 108.093 126.523 115.517 119.952 121.576C113.381 127.549 105.829 130.536 97.296 130.536ZM106.384 46.184C104.165 46.184 101.648 46.44 98.832 46.952C97.9787 55.9973 95.5467 69.224 91.536 86.632C87.6107 103.955 85.3067 115.005 84.624 119.784C86.672 120.808 89.488 121.32 93.072 121.32C96.656 121.32 100.027 119.912 103.184 117.096C106.427 114.195 109.029 110.611 110.992 106.344C112.955 102.077 114.661 97.2987 116.112 92.008C118.587 82.536 119.824 73.9173 119.824 66.152C119.824 58.3867 118.8 53.1387 116.752 50.408C114.704 47.592 111.248 46.184 106.384 46.184Z" fill="black"/>
<path fill-rule="evenodd" clip-rule="evenodd" d="M183.642 107.697C192.171 105.062 197.003 102.055 197.003 98.8628C197.003 88.4452 145.536 80 82.0485 80C49.9145 80 20.8601 82.1635 0 85.6513C14.4962 84.7957 30.1214 84.3295 46.409 84.3295C122.247 84.3295 183.725 94.436 183.725 106.903C183.725 107.169 183.697 107.434 183.642 107.697Z" fill="#AF2626"/>
</svg>
