<svg width="245" height="156" viewBox="0 0 245 156" fill="none" xmlns="http://www.w3.org/2000/svg">
<g filter="url(#filter0_d_20_25)">
<path d="M41.7066 85.1389C39.7564 87.078 36.6062 87.078 34.6559 85.1389L30.5495 81.056C28.5833 79.1011 28.5833 75.9196 30.5495 73.9647L66.0093 38.7083C67.9596 36.7692 71.1097 36.7692 73.06 38.7083L77.1664 42.7911C79.1326 44.746 79.1326 47.9275 77.1664 49.8825L41.7066 85.1389Z" fill="white"/>
<path d="M41.7066 70.9432C39.7564 69.0042 36.6062 69.0042 34.6559 70.9433L30.5495 75.0261C28.5833 76.981 28.5833 80.1625 30.5495 82.1175L66.0093 117.374C67.9596 119.313 71.1097 119.313 73.06 117.374L77.1664 113.291C79.1326 111.336 79.1326 108.155 77.1664 106.2L41.7066 70.9432Z" fill="white"/>
</g>
<g filter="url(#filter1_d_20_25)">
<path d="M203.201 85.1389C205.151 87.078 208.301 87.078 210.251 85.1389L214.358 81.056C216.324 79.1011 216.324 75.9196 214.358 73.9647L178.898 38.7083C176.948 36.7692 173.798 36.7692 171.847 38.7083L167.741 42.7911C165.775 44.746 165.775 47.9275 167.741 49.8825L203.201 85.1389Z" fill="white"/>
<path d="M203.201 70.9432C205.151 69.0042 208.301 69.0042 210.251 70.9433L214.358 75.0261C216.324 76.981 216.324 80.1625 214.358 82.1175L178.898 117.374C176.948 119.313 173.798 119.313 171.847 117.374L167.741 113.291C165.775 111.336 165.775 108.155 167.741 106.2L203.201 70.9432Z" fill="white"/>
</g>
<g filter="url(#filter2_d_20_25)">
<path d="M95.2172 107.466C93.6008 108.075 92.0185 106.502 92.6309 104.895L96.7792 94.0086C97.295 92.655 99.0437 92.2815 100.073 93.305L106.874 100.067C107.903 101.09 107.528 102.829 106.166 103.342L95.2172 107.466Z" fill="white"/>
<path d="M109.9 101.43L98.7025 90.296L135.963 53.2494L147.161 64.383L109.9 101.43Z" fill="white" fill-opacity="0.8"/>
<path d="M147.988 63.5596L136.79 52.4259L144.285 44.9745C146.243 43.0275 149.418 43.0275 151.376 44.9745L155.483 49.0574C157.441 51.0044 157.441 54.1611 155.483 56.1081L147.988 63.5596Z" fill="white" fill-opacity="0.6"/>
</g>
<g filter="url(#filter3_d_20_25)">
<path d="M234.614 64.3129C236.636 80.6857 226.621 97.4766 207.643 111.351C188.74 125.171 161.4 135.707 130.098 139.529C98.7965 143.35 69.7048 139.703 48.0013 130.84C26.211 121.943 12.4083 108.059 10.3864 91.6867C8.36444 75.3139 18.3792 58.523 37.3572 44.6484C56.2597 30.8291 83.5998 20.2921 114.902 16.4708C146.203 12.6495 175.295 16.2971 196.999 25.1593C218.789 34.0569 232.592 47.9401 234.614 64.3129Z" stroke="white" stroke-width="5" shape-rendering="crispEdges"/>
</g>
<defs>
<filter id="filter0_d_20_25" x="25.0752" y="37.2539" width="57.5654" height="89.5742" filterUnits="userSpaceOnUse" color-interpolation-filters="sRGB">
<feFlood flood-opacity="0" result="BackgroundImageFix"/>
<feColorMatrix in="SourceAlpha" type="matrix" values="0 0 0 0 0 0 0 0 0 0 0 0 0 0 0 0 0 0 127 0" result="hardAlpha"/>
<feOffset dy="4"/>
<feGaussianBlur stdDeviation="2"/>
<feComposite in2="hardAlpha" operator="out"/>
<feColorMatrix type="matrix" values="0 0 0 0 0 0 0 0 0 0 0 0 0 0 0 0 0 0 0.25 0"/>
<feBlend mode="normal" in2="BackgroundImageFix" result="effect1_dropShadow_20_25"/>
<feBlend mode="normal" in="SourceGraphic" in2="effect1_dropShadow_20_25" result="shape"/>
</filter>
<filter id="filter1_d_20_25" x="162.267" y="37.2539" width="57.5654" height="89.5742" filterUnits="userSpaceOnUse" color-interpolation-filters="sRGB">
<feFlood flood-opacity="0" result="BackgroundImageFix"/>
<feColorMatrix in="SourceAlpha" type="matrix" values="0 0 0 0 0 0 0 0 0 0 0 0 0 0 0 0 0 0 127 0" result="hardAlpha"/>
<feOffset dy="4"/>
<feGaussianBlur stdDeviation="2"/>
<feComposite in2="hardAlpha" operator="out"/>
<feColorMatrix type="matrix" values="0 0 0 0 0 0 0 0 0 0 0 0 0 0 0 0 0 0 0.25 0"/>
<feBlend mode="normal" in2="BackgroundImageFix" result="effect1_dropShadow_20_25"/>
<feBlend mode="normal" in="SourceGraphic" in2="effect1_dropShadow_20_25" result="shape"/>
</filter>
<filter id="filter2_d_20_25" x="88.4961" y="43.5146" width="72.4551" height="72.0859" filterUnits="userSpaceOnUse" color-interpolation-filters="sRGB">
<feFlood flood-opacity="0" result="BackgroundImageFix"/>
<feColorMatrix in="SourceAlpha" type="matrix" values="0 0 0 0 0 0 0 0 0 0 0 0 0 0 0 0 0 0 127 0" result="hardAlpha"/>
<feOffset dy="4"/>
<feGaussianBlur stdDeviation="2"/>
<feComposite in2="hardAlpha" operator="out"/>
<feColorMatrix type="matrix" values="0 0 0 0 0 0 0 0 0 0 0 0 0 0 0 0 0 0 0.25 0"/>
<feBlend mode="normal" in2="BackgroundImageFix" result="effect1_dropShadow_20_25"/>
<feBlend mode="normal" in="SourceGraphic" in2="effect1_dropShadow_20_25" result="shape"/>
</filter>
<filter id="filter3_d_20_25" x="3.62793" y="12.4648" width="237.744" height="139.07" filterUnits="userSpaceOnUse" color-interpolation-filters="sRGB">
<feFlood flood-opacity="0" result="BackgroundImageFix"/>
<feColorMatrix in="SourceAlpha" type="matrix" values="0 0 0 0 0 0 0 0 0 0 0 0 0 0 0 0 0 0 127 0" result="hardAlpha"/>
<feOffset dy="4"/>
<feGaussianBlur stdDeviation="2"/>
<feComposite in2="hardAlpha" operator="out"/>
<feColorMatrix type="matrix" values="0 0 0 0 0 0 0 0 0 0 0 0 0 0 0 0 0 0 0.25 0"/>
<feBlend mode="normal" in2="BackgroundImageFix" result="effect1_dropShadow_20_25"/>
<feBlend mode="normal" in="SourceGraphic" in2="effect1_dropShadow_20_25" result="shape"/>
</filter>
</defs>
</svg>
